# xmcd
#
# Track frame offsets:
#	150
#	22365
#	38551
#	61416
#	81648
#	98841
#	132758
#	136817
#	166081
#	182879
#	244955
#	267609
#	300258
#
# Disc length: 4283 seconds
#
# Revision: 1
# Processed by: cddbd v1.5.2PL0 Copyright (c) Steve Scherf et al.
# Submitted via: audiograbber 1.83.01
#
DISCID=b310b90d
DTITLE=Grateful Dead - 73-09-12 College of William and Mary, Williamsburg VA
DYEAR=1900
DGENRE=
TTITLE0=Bertha
TTITLE1=Mexicali Blues
TTITLE2=Brown Eyed Women
TTITLE3=El Paso
TTITLE4=Don't Ease Me In
TTITLE5=Looks Like Rain
TTITLE6=Beer Barrel Polka
TTITLE7=Ramble On Rose
TTITLE8=Me and My Uncle
TTITLE9=Bird Song
TTITLE10=Jack Straw
TTITLE11=Loose Lucy
TTITLE12=Big River
EXTD=
EXTT0=
EXTT1=
EXTT2=
EXTT3=
EXTT4=
EXTT5=
EXTT6=
EXTT7=
EXTT8=
EXTT9=
EXTT10=
EXTT11=
EXTT12=
PLAYORDER=
